<svg width="200" height="200" viewBox="0 0 200 200" xmlns="http://www.w3.org/2000/svg">
  <defs>
    <linearGradient id="bgGradient" x1="0%" y1="0%" x2="100%" y2="100%">
      <stop offset="0%" style="stop-color:#0073E6"/>
      <stop offset="100%" style="stop-color:#00B4D8"/>
    </linearGradient>
  </defs>
  
  <rect width="200" height="200" rx="40" fill="url(#bgGradient)"/>
  
  <path d="M 35 70 Q 35 55, 50 55 L 90 55 Q 105 55, 105 70 L 105 100 Q 105 115, 90 115 L 55 115 L 40 130 L 42 115 Q 35 115, 35 100 Z" fill="white" opacity="0.95"/>
  
  <path d="M 95 85 Q 95 70, 110 70 L 150 70 Q 165 70, 165 85 L 165 115 Q 165 130, 150 130 L 120 130 L 105 145 L 107 130 Q 95 130, 95 115 Z" fill="white" opacity="0.95"/>
  
  <circle cx="100" cy="92" r="45" stroke="white" stroke-width="3" fill="none" opacity="0.3"/>
  <circle cx="100" cy="92" r="35" stroke="white" stroke-width="2" fill="none" opacity="0.5"/>
  
  <circle cx="100" cy="92" r="8" fill="#FF4D4F"/>
  <circle cx="100" cy="92" r="4" fill="white"/>
</svg>